<?xml version="1.0" encoding="iso-8859-1"?>
<!-- Generator: Adobe Illustrator 19.0.0, SVG Export Plug-In . SVG Version: 6.00 Build 0)  -->
<svg version="1.1" id="Capa_1" xmlns="http://www.w3.org/2000/svg" xmlns:xlink="http://www.w3.org/1999/xlink" x="0px" y="0px"
	 viewBox="0 0 512 512" style="enable-background:new 0 0 512 512;" xml:space="preserve">
<path style="fill:#303C42;" d="M469.333,21.333H42.667C19.135,21.333,0,40.469,0,64v298.667c0,23.531,19.135,42.667,42.667,42.667
	h149.362c-0.46,17.052-3.728,44.306-15.893,57.104c-4.469,4.708-9.604,6.896-16.135,6.896c-5.896,0-10.667,4.771-10.667,10.667
	c0,5.896,4.771,10.667,10.667,10.667h192c5.896,0,10.667-4.771,10.667-10.667c0-5.896-4.771-10.667-10.667-10.667
	c-6.531,0-11.667-2.188-16.135-6.896c-12.165-12.798-15.434-40.052-15.893-57.104h149.362c23.531,0,42.667-19.135,42.667-42.667V64
	C512,40.469,492.865,21.333,469.333,21.333z"/>
<g>
	<path id="SVGCleanerId_0" style="fill:#5C6671;" d="M42.667,42.667h426.667c11.76,0,21.333,9.573,21.333,21.333v234.667H21.333V64
		C21.333,52.24,30.906,42.667,42.667,42.667z"/>
</g>
<g>
	
		<linearGradient id="SVGCleanerId_0_3_" gradientUnits="userSpaceOnUse" x1="-45.8074" y1="643.4824" x2="-23.4397" y2="633.049" gradientTransform="matrix(21.3333 0 0 -21.3333 996.3334 13791.667)">
		<stop  offset="0" style="stop-color:#FFFFFF;stop-opacity:0.2"/>
		<stop  offset="1" style="stop-color:#FFFFFF;stop-opacity:0"/>
	</linearGradient>
	<path id="SVGCleanerId_0_1_" style="fill:url(#SVGCleanerId_0_3_);" d="M42.667,42.667h426.667c11.76,0,21.333,9.573,21.333,21.333
		v234.667H21.333V64C21.333,52.24,30.906,42.667,42.667,42.667z"/>
</g>
<g>
	
		<linearGradient id="SVGCleanerId_0_4_" gradientUnits="userSpaceOnUse" x1="-43.0562" y1="646.5446" x2="-26.3501" y2="629.8376" gradientTransform="matrix(21.3333 0 0 -21.3333 996.3334 13791.667)">
		<stop  offset="0" style="stop-color:#FFFFFF;stop-opacity:0.2"/>
		<stop  offset="1" style="stop-color:#FFFFFF;stop-opacity:0"/>
	</linearGradient>
	<path id="SVGCleanerId_0_2_" style="fill:url(#SVGCleanerId_0_4_);" d="M42.667,42.667h426.667c11.76,0,21.333,9.573,21.333,21.333
		v234.667H21.333V64C21.333,52.24,30.906,42.667,42.667,42.667z"/>
</g>
<g>
	<path style="fill:#F2F2F2;" d="M469.333,384H42.667c-11.76,0-21.333-9.573-21.333-21.333V320h469.333v42.667
		C490.667,374.427,481.094,384,469.333,384z"/>
	<path style="fill:#F2F2F2;" d="M314.271,469.333H197.729c12.882-19.749,15.374-48.188,15.695-64h85.151
		C298.897,421.146,301.389,449.585,314.271,469.333z"/>
</g>
<circle style="fill:#303C42;" cx="256" cy="352" r="21.333"/>
<linearGradient id="SVGID_1_" gradientUnits="userSpaceOnUse" x1="-35.701" y1="628.4822" x2="-31.8374" y2="624.6187" gradientTransform="matrix(21.3333 0 0 -21.3333 996.3334 13791.667)">
	<stop  offset="0" style="stop-color:#000000;stop-opacity:0.1"/>
	<stop  offset="1" style="stop-color:#000000;stop-opacity:0"/>
</linearGradient>
<path style="fill:url(#SVGID_1_);" d="M314.271,469.333c-12.882-19.749-15.374-48.188-15.695-64h-85.151l64,64H314.271z"/>
<g>
	<path style="fill:#303C42;" d="M195.833,232.198c2,1.656,4.417,2.469,6.823,2.469c3.063,0,6.094-1.302,8.208-3.833
		c3.771-4.531,3.156-11.26-1.365-15.031l-54.167-45.135l54.167-45.135c4.521-3.771,5.135-10.5,1.365-15.031
		c-3.781-4.521-10.479-5.135-15.031-1.365l-64,53.333C129.406,164.5,128,167.5,128,170.667s1.406,6.167,3.833,8.198L195.833,232.198
		z"/>
	<path style="fill:#303C42;" d="M301.135,230.833c2.115,2.531,5.146,3.833,8.208,3.833c2.406,0,4.823-0.813,6.823-2.469l64-53.333
		c2.427-2.031,3.833-5.031,3.833-8.198s-1.406-6.167-3.833-8.198l-64-53.333c-4.552-3.771-11.25-3.156-15.031,1.365
		c-3.771,4.531-3.156,11.26,1.365,15.031l54.167,45.135L302.5,215.802C297.979,219.573,297.365,226.302,301.135,230.833z"/>
	<path style="fill:#303C42;" d="M219.802,255.135c1.365,0.594,2.792,0.865,4.198,0.865c4.135,0,8.073-2.417,9.802-6.469l64-149.333
		c2.323-5.406-0.188-11.677-5.604-14c-5.385-2.333-11.688,0.177-14,5.604l-64,149.333
		C211.875,246.542,214.385,252.813,219.802,255.135z"/>
</g>
<linearGradient id="SVGID_2_" gradientUnits="userSpaceOnUse" x1="-47.6559" y1="641.8846" x2="-22.2407" y2="630.0325" gradientTransform="matrix(21.3333 0 0 -21.3333 996.3334 13791.667)">
	<stop  offset="0" style="stop-color:#FFFFFF;stop-opacity:0.2"/>
	<stop  offset="1" style="stop-color:#FFFFFF;stop-opacity:0"/>
</linearGradient>
<path style="fill:url(#SVGID_2_);" d="M469.333,21.333H42.667C19.135,21.333,0,40.469,0,64v298.667
	c0,23.531,19.135,42.667,42.667,42.667h149.362c-0.46,17.052-3.728,44.306-15.893,57.104c-4.469,4.708-9.604,6.896-16.135,6.896
	c-5.896,0-10.667,4.771-10.667,10.667c0,5.896,4.771,10.667,10.667,10.667h192c5.896,0,10.667-4.771,10.667-10.667
	c0-5.896-4.771-10.667-10.667-10.667c-6.531,0-11.667-2.188-16.135-6.896c-12.165-12.798-15.434-40.052-15.893-57.104h149.362
	c23.531,0,42.667-19.135,42.667-42.667V64C512,40.469,492.865,21.333,469.333,21.333z"/>
<g>
</g>
<g>
</g>
<g>
</g>
<g>
</g>
<g>
</g>
<g>
</g>
<g>
</g>
<g>
</g>
<g>
</g>
<g>
</g>
<g>
</g>
<g>
</g>
<g>
</g>
<g>
</g>
<g>
</g>
</svg>
